<svg width="1024" height="1024" viewBox="0 0 1024 1024" fill="none" xmlns="http://www.w3.org/2000/svg">
<path d="M858.5 763.6C839.636 718.917 812.261 678.33 777.9 644.1C743.643 609.771 703.063 582.4 658.4 563.5C658 563.3 657.6 563.2 657.2 563C719.5 518 760 444.7 760 362C760 225 649 114 512 114C375 114 264 225 264 362C264 444.7 304.5 518 366.8 563.1C366.4 563.3 366 563.4 365.6 563.6C320.8 582.5 280.6 609.6 246.1 644.2C211.771 678.457 184.4 719.037 165.5 763.7C146.932 807.425 136.918 854.305 136 901.8C135.973 902.867 136.161 903.929 136.551 904.923C136.941 905.917 137.526 906.822 138.271 907.587C139.017 908.351 139.908 908.958 140.892 909.372C141.875 909.787 142.932 910 144 910H204C208.4 910 211.9 906.5 212 902.2C214 825 245 752.7 299.8 697.9C356.5 641.2 431.8 610 512 610C592.2 610 667.5 641.2 724.2 697.9C779 752.7 810 825 812 902.2C812.1 906.6 815.6 910 820 910H880C881.068 910 882.125 909.787 883.108 909.372C884.092 908.958 884.983 908.351 885.729 907.587C886.474 906.822 887.059 905.917 887.449 904.923C887.839 903.929 888.027 902.867 888 901.8C887 854 877.1 807.5 858.5 763.6V763.6ZM512 534C466.1 534 422.9 516.1 390.4 483.6C357.9 451.1 340 407.9 340 362C340 316.1 357.9 272.9 390.4 240.4C422.9 207.9 466.1 190 512 190C557.9 190 601.1 207.9 633.6 240.4C666.1 272.9 684 316.1 684 362C684 407.9 666.1 451.1 633.6 483.6C601.1 516.1 557.9 534 512 534Z" fill="white"/>
</svg>
